HIERARCHY
ROOT Hips
{
	OFFSET 0.000000 0.000000 0.000000
	CHANNELS 6 Xposition Yposition Zposition Zrotation Yrotation Xrotation 
	JOINT LHipJoint
	{
		OFFSET 0.000000 0.000000 0.000000
		CHANNELS 3 Zrotation Yrotation Xrotation
		JOINT LeftUpLeg
		{
			OFFSET 1.363060 -1.794630 0.839290
			CHANNELS 3 Zrotation Yrotation Xrotation
			JOINT LeftLeg
			{
				OFFSET 2.448110 -6.726130 0.000000
				CHANNELS 3 Zrotation Yrotation Xrotation
				JOINT LeftFoot
				{
					OFFSET 2.562200 -7.039590 0.000000
					CHANNELS 3 Zrotation Yrotation Xrotation
					JOINT LeftToeBase
					{
						OFFSET 0.157640 -0.433110 2.322550
						CHANNELS 3 Zrotation Yrotation Xrotation
						End Site
						{
							OFFSET 0.000000 0.000000 0.000000
						}
					}
				}
			}
		}
	}
	JOINT RHipJoint
	{
		OFFSET 0.000000 0.000000 0.000000
		CHANNELS 3 Zrotation Yrotation Xrotation
		JOINT RightUpLeg
		{
			OFFSET -1.305520 -1.794630 0.839290
			CHANNELS 3 Zrotation Yrotation Xrotation
			JOINT RightLeg
			{
				OFFSET -2.542530 -6.985550 0.000000
				CHANNELS 3 Zrotation Yrotation Xrotation
				JOINT RightFoot
				{
					OFFSET -2.568260 -7.056230 0.000000
					CHANNELS 3 Zrotation Yrotation Xrotation
					JOINT RightToeBase
					{
						OFFSET -0.164730 -0.452590 2.363150
						CHANNELS 3 Zrotation Yrotation Xrotation
						End Site
						{
							OFFSET 0.000000 0.000000 0.000000
						}
					}
				}
			}
		}
	}
}
MOTION
Frames: 19
Frame Time: 0.008333
1.361123 15.344889 -1.048194 -110.507753 84.401046 -81.024514 -14.386229 0.164318 -5.572642 -5.516468 10.091361 -19.340445 -0.631504 2.953162 53.699753 1.815321 10.568987 -15.064387 -1.475800 0.000000 -58.592300 5.663612 -0.097231 -1.764967 16.956886 2.274405 -71.117774 2.736249 -5.443942 50.031574 1.485359 10.056273 -1.852387 1.034700 0.000000 -35.809801
1.574685 15.309053 -1.072616 -111.886238 83.957768 -82.492301 -14.609029 0.125082 -5.550366 -4.900945 10.264516 -19.565218 -0.452719 3.094175 55.336628 1.945548 11.593130 -14.664567 -1.501400 0.000000 -52.809100 5.576701 -0.175037 -1.949078 17.478659 2.071126 -71.057956 2.597718 -5.595661 52.139635 1.403770 9.927134 -3.355952 0.808900 0.000000 -33.572100
1.783070 15.278064 -1.097093 -113.466247 83.504190 -84.112507 -14.816301 0.068107 -5.521064 -4.342562 10.363410 -20.024745 -0.275278 3.250587 57.190461 2.112352 12.790014 -14.544004 -1.592600 -0.000000 -45.713400 5.492739 -0.258970 -2.116531 18.016276 1.847677 -70.955379 2.489050 -5.721388 54.000439 1.303168 9.684514 -4.928559 0.576400 -0.000000 -32.423100
1.985988 15.252269 -1.120737 -115.273662 83.054876 -85.908622 -15.002945 -0.002113 -5.483948 -3.861445 10.386104 -20.715545 -0.101576 3.421380 59.216984 2.307787 14.109258 -14.686274 -1.753300 0.000000 -37.879700 5.417176 -0.340928 -2.265255 18.532065 1.608921 -70.813625 2.403000 -5.821603 55.609588 1.184554 9.333050 -6.490005 0.358900 -0.000001 -32.297100
2.183193 15.231818 -1.143027 -117.328062 82.618198 -87.900306 -15.166063 -0.081735 -5.437771 -3.469507 10.331237 -21.626541 0.069759 3.604682 61.364365 2.521752 15.492972 -15.019895 -1.975101 0.000000 -30.136800 5.353920 -0.413642 -2.394686 18.994808 1.359846 -70.637662 2.332516 -5.897138 56.972873 1.050350 8.881543 -7.969032 0.173500 0.000000 -33.029900
2.374631 15.216802 -1.163351 -119.637626 82.206564 -90.098547 -15.300837 -0.165476 -5.382483 -3.183240 10.196470 -22.736593 0.242235 3.797350 63.578083 2.742853 16.881256 -15.433992 -2.232900 0.000000 -23.420601 5.308943 -0.467575 -2.506418 19.370616 1.100938 -70.434649 2.270141 -5.949665 58.109975 0.904565 8.345541 -9.311142 0.030200 -0.000000 -34.396100
2.560284 15.207110 -1.181716 -122.201642 81.819853 -92.507503 -15.406126 -0.250343 -5.318747 -3.007198 9.986890 -24.025723 0.417230 3.996510 65.818842 2.958388 18.203323 -15.864001 -2.504100 0.000000 -18.129000 5.284684 -0.497516 -2.601708 19.639686 0.834793 -70.211393 2.210446 -5.981361 59.045814 0.751773 7.742483 -10.482011 -0.068500 -0.000000 -36.114800
2.740131 15.202640 -1.197898 -125.004620 81.465904 -95.122756 -15.475812 -0.331119 -5.252567 -2.958714 9.714205 -25.461859 0.593736 4.198629 68.048179 3.157055 19.395622 -16.275130 -2.769800 0.000001 -14.353800 5.288017 -0.494325 -2.684852 19.772798 0.555406 -69.972152 2.148588 -5.995483 59.817060 0.597313 7.099120 -11.476830 -0.126900 0.000000 -37.863700
2.914661 15.203018 -1.212956 -128.010002 81.120176 -97.908885 -15.518154 -0.412331 -5.183762 -3.006709 9.402361 -27.042169 0.767375 4.402623 70.247670 3.327616 20.384638 -16.720129 -3.035600 0.000000 -11.426200 5.311305 -0.466429 -2.753309 19.792477 0.277488 -69.721538 2.083677 -5.994155 60.443902 0.444170 6.424775 -12.287566 -0.150499 -0.000000 -39.512800
3.083786 15.208168 -1.226694 -131.169110 80.791035 -100.834419 -15.525469 -0.490297 -5.122652 -3.169227 9.072493 -28.725377 0.937416 4.603960 72.373764 3.463625 21.140109 -17.145149 -3.275300 -0.000000 -9.546200 5.361827 -0.406162 -2.814431 19.676369 -0.010048 -69.454302 2.014215 -5.981320 60.964616 0.296337 5.748990 -12.950690 -0.149499 0.000000 -40.834000
3.247881 15.217818 -1.239877 -134.415994 80.462371 -103.840471 -15.502279 -0.569198 -5.072441 -3.425633 8.749910 -30.497333 1.100939 4.800507 74.401323 3.560199 21.632953 -17.557999 -3.482100 -0.000000 -8.424699 5.434257 -0.320906 -2.869351 19.446032 -0.301195 -69.165704 1.941956 -5.959502 61.398126 0.154967 5.082584 -13.493659 -0.131300 0.000000 -41.815800
3.407202 15.231706 -1.253230 -137.675432 80.122834 -106.860299 -15.451677 -0.652755 -5.036783 -3.761850 8.456027 -32.340534 1.255831 4.989940 76.304017 3.616107 21.859072 -17.945636 -3.644500 -0.000000 -7.899500 5.523946 -0.217305 -2.920616 19.121503 -0.593723 -68.848373 1.869621 -5.931074 61.759263 0.020202 4.434898 -13.953094 -0.101900 0.000000 -42.491899
3.562106 15.249631 -1.267340 -140.872068 79.763925 -109.824517 -15.377524 -0.744883 -5.017611 -4.163658 8.207796 -34.242146 1.400240 5.170628 78.059831 3.633331 21.834630 -18.291540 -3.753300 0.000001 -7.859800 5.625026 -0.103146 -2.970282 18.726935 -0.884872 -68.494254 1.800422 -5.897660 62.056347 -0.109011 3.809583 -14.365174 -0.065100 0.000000 -42.947301
3.712954 15.271333 -1.282596 -143.943725 79.381779 -112.675282 -15.283178 -0.848533 -5.015306 -4.619250 8.015978 -36.192241 1.532538 5.341699 79.651328 3.616955 21.594852 -18.579859 -3.804301 0.000000 -8.218800 5.731839 0.014411 -3.019961 18.286060 -1.171939 -68.095383 1.737296 -5.860022 62.291783 -0.234401 3.205473 -14.759772 -0.022499 -0.000000 -43.289800
3.860167 15.296570 -1.299421 -146.837691 78.973689 -115.361579 -15.172251 -0.966161 -5.028158 -5.118626 7.884509 -38.186559 1.651379 5.503041 81.066731 3.574758 21.189985 -18.802940 -3.801000 -0.000000 -8.878701 5.838358 0.128554 -3.070376 17.822361 -1.451459 -67.646336 1.682642 -5.818222 62.463322 -0.357963 2.617411 -15.155912 0.025600 -0.000000 -43.631100
4.004228 15.325005 -1.318031 -149.523404 78.540303 -117.852586 -15.046964 -1.098375 -5.053198 -5.655824 7.810928 -40.222498 1.755340 5.655118 82.299089 3.516655 20.680863 -18.966615 -3.756000 0.000000 -9.699701 5.940155 0.234439 -3.121640 17.354327 -1.720720 -67.143373 1.637717 -5.771735 62.566161 -0.481366 2.038528 -15.559786 0.080099 0.000000 -44.065900
4.145664 15.356334 -1.338530 -151.990493 78.083797 -120.136120 -14.908220 -1.244184 -5.086353 -6.228957 7.786241 -42.299278 1.843003 5.798624 83.345512 3.453431 20.131051 -19.088188 -3.687400 0.000000 -10.530200 6.034452 0.329198 -3.173631 16.895205 -1.978873 -66.585420 1.602704 -5.719901 62.595124 -0.605560 1.462425 -15.965601 0.141500 -0.000000 -44.661100
4.284890 15.390170 -1.360739 -154.246674 77.607065 -122.218407 -14.756001 -1.401330 -5.122453 -6.835132 7.796746 -44.415188 1.913551 5.934138 84.205186 3.395214 19.599976 -19.180911 -3.610900 -0.000000 -11.378100 6.119901 0.411474 -3.225734 16.454647 -2.224211 -65.973046 1.576402 -5.661880 62.546578 -0.730806 0.882849 -16.356496 0.209900 0.000000 -45.447500
4.422511 15.426135 -1.384725 -156.310144 77.112022 -124.114527 -14.589208 -1.565839 -5.156576 -7.478722 7.824749 -46.568699 1.964526 6.062221 84.880849 3.351180 19.134366 -19.295144 -3.552400 -0.000001 -11.933700 6.197017 0.481726 -3.277648 16.034516 -2.460522 -65.310560 1.557389 -5.597652 62.419213 -0.855925 0.299378 -16.710852 0.283900 -0.000000 -46.417400
